<svg xmlns="http://www.w3.org/2000/svg" width="960" viewBox="0 0 720 576" height="768" version="1.0"><g style="cursor:pointer"><a/><path fill="none" d="M37.852 333.926h644.296" stroke="#00bf63" stroke-width="5.25"/><path d="M96.173 288.064v-28.297H69.829v28.297H45.876v-74.578h23.953v27.219h26.344v-27.22h23.953v74.579Zm39.241-63.953v-14.625h21.562v14.625Zm0 63.953V230.83h21.562v57.234Zm70.123-58.64q2.497.001 4.437.593 1.952.598 1.953.703v18.11h-6.937q-6.72 0-9.703 3.468-2.97 3.47-2.969 10.297v25.469H170.74V230.83h17.672l1.406 8.672q1.952-4.982 6.172-7.532c2.82-1.695 6.004-2.547 9.547-2.547m42.922.11q15.714.001 24 7.375 8.297 7.36 8.297 22.547v3.672h-42.922q0 6.187 2.765 9.328t8.735 3.14q5.403 0 7.953-2.265c1.695-1.52 2.547-3.547 2.547-6.078h20.921q0 10.406-7.922 16.265c-5.273 3.899-12.964 5.844-23.078 5.844q-15.927 0-24.703-7.422-8.783-7.419-8.782-22.484-.002-14.748 8.563-22.328 8.56-7.594 23.625-7.594m.875 13.765q-10.208.001-11.39 9.641h21.03q-.002-4.435-2.547-7.031-2.547-2.61-7.093-2.61m86.265-10.734v55.5h-23.954v-55.5H287.16v-19.078h72.828v19.078Zm63.412-3.031q15.714.001 24 7.375 8.297 7.36 8.297 22.547v3.672h-42.922q0 6.187 2.765 9.328t8.735 3.14q5.403 0 7.953-2.265c1.695-1.52 2.547-3.547 2.547-6.078h20.921q0 10.406-7.922 16.265c-5.273 3.899-12.964 5.844-23.078 5.844q-15.927 0-24.703-7.422-8.783-7.419-8.782-22.484-.002-14.748 8.563-22.328 8.56-7.594 23.625-7.594m.875 13.765q-10.208.001-11.39 9.641h21.03q-.002-4.435-2.547-7.031-2.547-2.61-7.093-2.61m117.811-13.765q9.75.002 14.625 5.593 4.889 5.58 4.891 15.876v37.062h-21.578v-34.469c0-2.457-.602-4.426-1.797-5.906-1.187-1.477-2.867-2.219-5.031-2.219q-3.797 0-6.188 2.61-2.377 2.594-2.375 6.39v33.594h-21.561v-34.469c0-2.457-.602-4.426-1.797-5.906q-1.784-2.217-5.031-2.219-3.797 0-6.188 2.61-2.377 2.594-2.375 6.39v33.594h-21.579V230.83h17.672l1.406 8.562q3.247-4.545 8.61-7.203a25.3 25.3 0 0 1 11.343-2.656c8.594 0 14.367 3.289 17.328 9.86 2.25-3.032 5.125-5.43 8.625-7.204q5.248-2.655 11-2.656m70.124 0q11.608 0 17.89 7.593 6.282 7.58 6.282 22.438 0 14.736-6.282 22.266c-4.187 5.023-10.152 7.53-17.89 7.53-6.649 0-11.992-2.163-16.032-6.5v26.564H550.21v-78.593h17.563l1.844 8.14q6.28-9.435 18.203-9.437m-6.72 15.936c-3.18 0-5.562 1.121-7.156 3.36q-2.377 3.362-2.375 8.78v3.579q-.002 5.407 2.375 8.828 2.388 3.422 7.156 3.422 9.328 0 9.328-11.172v-5.75q0-11.046-9.328-11.047m68.497-15.937q11.496 0 19.453 4.5 7.97 4.5 7.969 13.922h-20.047c0-2.094-.937-3.57-2.812-4.438q-1.957-1.078-4.875-1.078c-5.211 0-7.813 1.227-7.813 3.672q-.002 2.063 2.703 2.937 2.718.861 8.89 1.844 7.593 1.08 12.688 2.547 5.093 1.453 8.891 5.203 3.797 3.738 3.797 10.453 0 10.957-8.188 15.61-8.188 4.657-21.406 4.656c-5.062 0-9.836-.703-14.312-2.11-4.48-1.406-8.133-3.585-10.953-6.546-2.813-2.97-4.22-6.727-4.22-11.282h20.048v.438q.105 3.675 3.093 5.14a14.15 14.15 0 0 0 6.344 1.47q9 .001 9-4.235-.002-2.168-2.828-3.14-2.814-.968-9.203-2.063-7.707-1.295-12.64-2.813a20.8 20.8 0 0 1-8.61-5.14q-3.69-3.638-3.688-10.141 0-10.512 7.97-14.953 7.966-4.453 20.75-4.453m-411.45 127.3h3.046v16.281q-.002 3.316-1.984 5.172-1.987 1.862-5.281 1.86-3.44 0-5.344-1.75-1.908-1.747-1.906-4.923h3.031q0 1.986 1.078 3.093 1.079 1.095 3.14 1.094 1.874 0 3.032-1.172 1.17-1.183 1.188-3.328Zm6.976 14.297q0-2.513.984-4.516.982-2.016 2.75-3.094 1.764-1.091 4.031-1.093c2.32 0 4.203.808 5.64 2.422q2.157 2.408 2.157 6.422v.203q-.002 2.503-.953 4.484-.954 1.986-2.735 3.094-1.779 1.095-4.077 1.094-3.485.001-5.641-2.407-2.156-2.42-2.156-6.406Zm2.937.344q0 2.846 1.313 4.578 1.325 1.72 3.546 1.719 2.218 0 3.532-1.75 1.312-1.749 1.312-4.891-.001-2.812-1.344-4.563c-.886-1.164-2.062-1.75-3.53-1.75q-2.176 0-3.5 1.735-1.33 1.722-1.329 4.922m30.765-.001q-.001 3.925-1.813 6.297-1.8 2.378-4.828 2.376c-2.156 0-3.824-.758-5-2.282l-.157 1.969h-2.671v-24.266h2.921v9.047q1.762-2.186 4.875-2.187c2.07 0 3.703.789 4.89 2.36q1.781 2.345 1.781 6.437Zm-2.922-.328q-.001-2.981-1.157-4.609-1.158-1.64-3.312-1.64-2.893.002-4.156 2.687v7.406q1.339 2.674 4.187 2.672 2.094.002 3.266-1.625 1.172-1.621 1.172-4.89m12.682.109h-7.719v-2.39h7.719Zm15.989-1.578h-9.658v10.156h-3.03v-23h14.25v2.484h-11.219v7.875h9.656Zm7.912 10.156h-2.92v-17.094h2.92Zm-3.155-21.625q0-.716.422-1.203.437-.499 1.281-.5.856.001 1.297.5.453.487.454 1.203-.001.705-.454 1.188-.44.468-1.296.468-.846 0-1.282-.468c-.281-.32-.422-.72-.422-1.188m10.601 4.531.094 2.14q1.95-2.45 5.11-2.452 5.42.002 5.468 6.11v11.296h-2.922v-11.312q-.017-1.842-.843-2.735-.832-.89-2.578-.89-1.424.002-2.5.765a5 5 0 0 0-1.672 1.985v12.187h-2.922v-17.094Zm14.367 8.407c0-2.626.617-4.735 1.86-6.329q1.874-2.39 4.89-2.39 2.999 0 4.75 2.047v-8.907h2.922v24.266h-2.688l-.14-1.828c-1.168 1.43-2.794 2.14-4.875 2.14-1.98 0-3.594-.804-4.844-2.421q-1.875-2.436-1.875-6.361Zm2.922.328c0 1.937.398 3.453 1.203 4.547q1.201 1.64 3.313 1.64 2.778 0 4.062-2.484v-7.86q-1.313-2.42-4.031-2.421-2.144 0-3.344 1.671c-.805 1.106-1.203 2.743-1.203 4.907m19.214 8.359h-2.92v-17.094h2.92Zm-3.155-21.625q0-.716.422-1.203.437-.499 1.281-.5.856.001 1.297.5.453.487.454 1.203-.001.705-.454 1.188-.44.468-1.296.468-.846 0-1.282-.468c-.281-.32-.422-.72-.422-1.188m10.601 4.531.094 2.14q1.95-2.45 5.11-2.452 5.42.002 5.468 6.11v11.296h-2.922v-11.312q-.017-1.842-.843-2.735-.832-.89-2.578-.89-1.424.002-2.5.765a5 5 0 0 0-1.672 1.985v12.187h-2.922v-17.094Zm14.383 8.407q-.001-3.998 1.843-6.36c1.239-1.57 2.875-2.36 4.907-2.36q3.123 0 4.875 2.204l.14-1.89h2.672v16.686q0 3.31-1.969 5.219-1.954 1.92-5.28 1.921-1.845 0-3.626-.796-1.768-.785-2.687-2.157l1.515-1.765q1.875 2.327 4.594 2.329 2.139-.002 3.328-1.203 1.186-1.208 1.188-3.375v-1.47q-1.752 2.018-4.782 2.017-3 .002-4.859-2.406-1.861-2.42-1.86-6.594m2.937.328q0 2.895 1.188 4.547 1.184 1.64 3.312 1.64c1.844 0 3.195-.832 4.063-2.5v-7.812q-1.349-2.451-4.032-2.453-2.127 0-3.328 1.671-1.205 1.66-1.203 4.907m0 0"/><g transform="translate(394.9 379.833)"/><path d="m410.535 372.583.453 3.031.64-2.734 4.549-16.047h2.562l4.438 16.047.64 2.781.485-3.094 3.577-15.734h3.047l-5.578 23h-2.766l-4.735-16.766-.374-1.75-.36 1.75-4.906 16.766h-2.767l-5.56-23h3.03Zm30.392 7.563c-2.325 0-4.215-.758-5.673-2.283-1.45-1.52-2.172-3.554-2.172-6.11v-.53c0-1.696.32-3.211.968-4.547q.967-1.999 2.72-3.125a6.85 6.85 0 0 1 3.78-1.125q3.342 0 5.188 2.203 1.842 2.191 1.844 6.281v1.219h-11.578q.06 2.52 1.468 4.078 1.419 1.564 3.61 1.563c1.031 0 1.898-.208 2.61-.626a6.7 6.7 0 0 0 1.89-1.687l1.781 1.39q-2.143 3.301-6.436 3.3m-.376-15.329q-1.768.001-2.968 1.297c-.805.856-1.297 2.059-1.485 3.61h8.563v-.22q-.128-2.232-1.203-3.452c-.711-.82-1.68-1.235-2.906-1.235m24.89 6.655q-.001 3.925-1.813 6.297-1.8 2.378-4.828 2.376c-2.156 0-3.824-.758-5-2.282l-.157 1.969h-2.671v-24.266h2.921v9.047q1.762-2.186 4.875-2.187c2.07 0 3.703.789 4.89 2.36q1.781 2.345 1.781 6.437Zm-2.922-.328q-.001-2.981-1.157-4.609-1.158-1.64-3.312-1.64-2.893.002-4.156 2.687v7.406q1.339 2.674 4.187 2.672 2.094.002 3.266-1.625 1.172-1.621 1.172-4.89m16.557 4.156c0-.79-.305-1.407-.906-1.844q-.893-.655-3.11-1.125c-1.48-.32-2.656-.703-3.531-1.14q-1.3-.67-1.922-1.579-.626-.921-.625-2.187 0-2.093 1.781-3.547 1.782-1.453 4.547-1.453c1.938 0 3.508.5 4.719 1.5q1.812 1.5 1.813 3.828h-2.938q0-1.184-1.031-2.063c-.68-.582-1.531-.875-2.563-.875q-1.595 0-2.5.704-.89.689-.89 1.812c0 .71.273 1.246.828 1.61q.841.534 3.031 1.015 2.186.486 3.547 1.172 1.36.674 2.015 1.64.657.957.657 2.329-.002 2.284-1.844 3.672c-1.219.917-2.805 1.375-4.75 1.375-1.367 0-2.578-.243-3.64-.72q-1.58-.73-2.47-2.03-.89-1.313-.89-2.83h2.922q.075 1.47 1.172 2.344 1.107.86 2.906.86 1.654 0 2.656-.672 1.015-.67 1.016-1.797m9.901 4.532h-2.92v-17.094h2.92Zm-3.155-21.625q0-.716.422-1.203.437-.499 1.281-.5.856.001 1.297.5.453.487.454 1.203-.001.705-.454 1.188-.44.468-1.296.468-.846 0-1.282-.468c-.281-.32-.422-.72-.422-1.188m11.788.391v4.14h3.203v2.25h-3.203v10.61q0 1.03.422 1.547c.289.335.781.5 1.468.5q.5 0 1.391-.188v2.375a8.7 8.7 0 0 1-2.25.313q-1.957 0-2.953-1.173-1.001-1.184-1-3.375v-10.61h-3.11v-2.25h3.11v-4.14Zm13.71 21.547c-2.325 0-4.215-.758-5.673-2.283q-2.173-2.278-2.172-6.11v-.53q-.002-2.543.968-4.547.967-1.999 2.72-3.125a6.85 6.85 0 0 1 3.78-1.125q3.342 0 5.188 2.203 1.842 2.191 1.844 6.281v1.219h-11.578q.06 2.52 1.468 4.078 1.419 1.564 3.61 1.563c1.031 0 1.898-.208 2.61-.626a6.7 6.7 0 0 0 1.89-1.687l1.781 1.39q-2.143 3.301-6.436 3.3m-.376-15.329q-1.768.001-2.968 1.297c-.805.856-1.297 2.059-1.485 3.61h8.563v-.22q-.128-2.232-1.203-3.452c-.711-.82-1.68-1.235-2.906-1.235m0 0"/></g></svg>
